<svg xmlns="http://www.w3.org/2000/svg" viewBox="0 0 200 200" role="img" aria-label="Logo Vida sobre ruedas con correcaminos">
  <defs>
    <linearGradient id="bg" x1="0" y1="0" x2="1" y2="1">
      <stop offset="0%" stop-color="#0d47a1"/>
      <stop offset="100%" stop-color="#082a66"/>
    </linearGradient>
  </defs>
  <circle cx="100" cy="100" r="96" fill="url(#bg)"/>
  <path d="M23 126c20-9 37-7 58 2 20 9 43 7 62-3" fill="none" stroke="#ff7a00" stroke-width="8" stroke-linecap="round"/>
  <path d="M98 72c21-6 42 3 49 20-17-5-34-3-47 4-13 7-31 8-44-1 8-12 23-20 42-23z" fill="#ff7a00"/>
  <circle cx="126" cy="79" r="4.5" fill="#082a66"/>
  <path d="M80 89c-8 9-9 25 0 35" fill="none" stroke="#ffffff" stroke-width="6" stroke-linecap="round"/>
  <path d="M70 132l-11 20M88 134l-4 22" stroke="#ffffff" stroke-width="5" stroke-linecap="round"/>
  <path d="M144 69l22-7-19 19z" fill="#ffffff"/>
  <path d="M101 115c13 4 27 3 39-3" fill="none" stroke="#ffffff" stroke-width="5" stroke-linecap="round"/>
</svg>
